<!DOCTYPE svg>
<svg version="1.0" xmlns="http://www.w3.org/2000/svg" width="400px" height="400px" viewBox="0 0 5 5">
	<rect fill="saddlebrown" x="0.2" y="3" width="2" height="1"/>
	<rect fill="darkred"     x="2.7" y="4" width="2" height="1"/>
	<g fill="snow" stroke="ghostwhite" stroke-width="0.4">
		<svg x="0.5" y="1" width="2" height="1" viewBox="0 0 10 5">
			<path stroke="darkgreen" d="M 9.5,0.3 2.5,0.3 C 1.8,0.7 1.5,0.7 0.8,0.2 0.5,0.5 0.5,4.5 0.8,4.8 1.5,4.3 1.8,4.3 2.5 4.7 L 9.5,4.7"/>
			<line x1="1.0" x2="9.5" y1="1.3" y2="1.3"/>
			<line x1="0.8" x2="9.5" y1="2.0" y2="2.0"/>
			<line x1="0.9" x2="9.5" y1="3.0" y2="3.0"/>
			<line x1="1.0" x2="9.5" y1="3.5" y2="3.5"/>
		</svg>
		<svg x="0" y="4" width="2" height="1" viewBox="0 0 10 5">
			<path stroke="steelblue" d="M 9.5,0.3 2.5,0.3 C 1.8,0.7 1.5,0.7 0.8,0.2 0.5,0.5 0.5,4.5 0.8,4.8 1.5,4.3 1.8,4.3 2.5 4.7 L 9.5,4.7"/>
			<line x1="1.0" x2="9.5" y1="1.3" y2="1.3"/>
			<line x1="0.8" x2="9.5" y1="2.0" y2="2.0"/>
			<line x1="0.9" x2="9.5" y1="3.0" y2="3.0"/>
			<line x1="1.0" x2="9.5" y1="3.5" y2="3.5"/>
		</svg>
		<svg x="2.8" y="2" width="2" height="1" viewBox="0 0 10 5">
			<path stroke="steelblue" d="M 9.5,0.3 2.5,0.3 C 1.8,0.7 1.5,0.7 0.8,0.2 0.5,0.5 0.5,4.5 0.8,4.8 1.5,4.3 1.8,4.3 2.5 4.7 L 9.5,4.7"/>
			<line x1="1.0" x2="9.5" y1="1.3" y2="1.3"/>
			<line x1="0.8" x2="9.5" y1="2.0" y2="2.0"/>
			<line x1="0.9" x2="9.5" y1="3.0" y2="3.0"/>
			<line x1="1.0" x2="9.5" y1="3.5" y2="3.5"/>
		</svg>
	</g>
	<g fill="whitesmoke" stroke="ghostwhite" stroke-width="0.4" transform="scale(-1,1)">
		<svg x="-2.2" y="0" width="2" height="1" viewBox="0 0 10 5">
			<path stroke="darkred" d="M 9.5,0.3 2.5,0.3 C 1.8,0.7 1.5,0.7 0.8,0.2 0.5,0.5 0.5,4.5 0.8,4.8 1.5,4.3 1.8,4.3 2.5 4.7 L 9.5,4.7"/>
			<line x1="1.0" x2="9.5" y1="1.3" y2="1.3"/>
			<line x1="0.8" x2="9.5" y1="2.0" y2="2.0"/>
			<line x1="0.9" x2="9.5" y1="3.0" y2="3.0"/>
			<line x1="1.0" x2="9.5" y1="3.5" y2="3.5"/>
		</svg>
		<svg x="-2.1" y="2" width="2" height="1" viewBox="0 0 10 5">
			<path stroke="salmon" d="M 9.5,0.3 2.5,0.3 C 1.8,0.7 1.5,0.7 0.8,0.2 0.5,0.5 0.5,4.5 0.8,4.8 1.5,4.3 1.8,4.3 2.5 4.7 L 9.5,4.7"/>
			<line x1="1" x2="9.5" y1="1.3" y2="1.3"/>
			<line x1="0.8" x2="9.5" y1="2" y2="2"/>
			<line x1="0.9" x2="9.5" y1="3" y2="3"/>
			<line x1="1" x2="9.5" y1="3.5" y2="3.5"/>
		</svg>
		<svg x="-4.5" y="3" width="2" height="1" viewBox="0 0 10 5">
			<path stroke="darkgreen" d="M 9.5,0.3 2.5,0.3 C 1.8,0.7 1.5,0.7 0.8,0.2 0.5,0.5 0.5,4.5 0.8,4.8 1.5,4.3 1.8,4.3 2.5 4.7 L 9.5,4.7"/>
			<line x1="1.0" x2="9.5" y1="1.3" y2="1.3"/>
			<line x1="0.8" x2="9.5" y1="2.0" y2="2.0"/>
			<line x1="0.9" x2="9.5" y1="3.0" y2="3.0"/>
			<line x1="1.0" x2="9.5" y1="3.5" y2="3.5"/>
		</svg>
	</g>
</svg>