<!DOCTYPE svg>
<svg version="1.0" xmlns="http://www.w3.org/2000/svg" xmlns:xlink="http://www.w3.org/1999/xlink" width="350px" height="400px" viewBox="0 0 3.5 4">
	<g stroke="#422400" stroke-width="0.3" stroke-linecap="round">
		<line x1="0.5" x2="0.5" y1="2" y2="3.5"/>
		<line x1="0.9" x2="0.9" y1="2" y2="2.5"/>
		<line x1="2.6" x2="2.6" y1="2" y2="2.5"/>
		<line x1="3.0" x2="3.0" y1="2" y2="3.5"/>
	</g>
	<g stroke="#482A06" stroke-width="0.1" stroke-linecap="round" stroke-dasharray="0,0.2,0.1,0.3">
		<line x1="0.5" x2="0.5" y1="2" y2="3.5"/>
		<line x1="0.9" x2="0.9" y1="2" y2="2.5"/>
		<line x1="2.6" x2="2.6" y1="2" y2="2.5"/>
		<line x1="3.0" x2="3.0" y1="2" y2="3.5"/>
	</g>
	<polygon stroke="#86400E" stroke-width="0.1" fill="#8A4315" points="0.5,0.2 0.2,2 3.3,2 3,0.2" stroke-linejoin="bevel"/>
	<g fill="saddlebrown" stroke="#86400E" stroke-linecap="round" stroke-dasharray="0.5,0.6,0.1,0.2,0.2,0.5,0.1,0.8" stroke-width="0.1">
		<path d="M 0.8,0.4 C 0.9,0.5 1.0,0.3 1.1,0.4 1.2,0.4 1.3,0.5 1.4,0.3 1.5,0.5 1.6,0.5 1.7,0.4 1.8,0.3 1.9,0.2 2.0,0.3 2.1,0.4 2.2,0.4 2.3,0.5 2.4,0.3 2.5,0.3 2.6,0.4 2.7,0.5 2.8,0.5 2.9,0.4 2.9,0.5 2.8,0.8 2.7,0.8 2.6,0.9 2.5,1.0 2.4,0.9 2.3,1.0 2.2,1.1 2.1,0.9 2.0,0.9 1.9,0.9 1.8,0.8 1.7,0.7 1.6,0.9 1.5,1.0 1.4,0.9 1.3,0.8 1.2,0.8 1.1,1.0 1.0,0.9 0.9,0.9 0.8,0.9 0.7,0.7 0.6,1.1 0.6,1.1 0.7,1.4 0.8,1.3 0.9,1.5 1.0,1.3 1.1,1.4 1.2,1.4 1.3,1.2 1.4,1.4 1.5,1.4 1.6,1.6 1.7,1.4 1.8,1.5 1.9,1.4 2.0,1.2 2.1,1.1 2.2,1.1 2.3,1.1 2.4,1.4 2.5,1.4 2.6,1.4 2.7,1.4 2.8,1.4 2.9,1.5 2.9,1.6 2.8,1.7 2.7,1.8 2.6,1.9 2.5,1.9 2.4,1.9 2.3,1.9 2.2,1.9 2.1,1.9 2.0,1.9 1.9,1.9 1.8,1.9 1.7,1.9 1.6,1.9 1.5,1.9 1.4,1.9 1.3,1.9 1.2,1.9 1.1,1.9 1.0,1.9 0.9,1.9 0.8,1.9 0.7,1.9 0.6,1.9"/>
	</g>
</svg>