<svg version="1.0" xmlns="http://www.w3.org/2000/svg" width="1000px" height="1000px" viewBox="-4 -4 13 13">
	<rect x="-4" y="-4" width="13" height="13"/>

	<symbol id="stop" viewbox="0 0 5 5" width="5" height="5">
		<polygon points="4.35,3.27 3.27,4.35 1.73,4.35 0.65,3.27 0.65,1.73 1.73,0.65 2.4,0.65 2.5,0.75 2.6,0.65 3.27,0.65 4.34,1.73"/>
	</symbol>

	<g fill="white">
		<use href="#stop" x="-5" y="-5" width="15" height="15" fill-opacity="0.1">
			<animateTransform type="rotate"
				from="0 2.5 2.5"
				to="360 2.5 2.5"
				attributeName="transform"
				dur="73728s"
				repeatCount="indefinite"/>
		</use>
		<use href="#stop" x="-4" y="-4" width="13" height="13" fill-opacity="0.2">
			<animateTransform type="rotate"
				from="0 2.5 2.5"
				to="360 2.5 2.5"
				attributeName="transform"
				dur="9216s"
				repeatCount="indefinite"/>
		</use>
		<use href="#stop" x="-3" y="-3" width="11" height="11" fill-opacity="0.3">
			<animateTransform type="rotate"
				from="0 2.5 2.5"
				to="360 2.5 2.5"
				attributeName="transform"
				dur="1152s"
				repeatCount="indefinite"/>
		</use>
		<use href="#stop" x="-2" y="-2" width="09" height="09" fill-opacity="0.4">
			<animateTransform type="rotate"
				from="0 2.5 2.5"
				to="360 2.5 2.5"
				attributeName="transform"
				dur="144s"
				repeatCount="indefinite"/>
		</use>

		<circle cx="2.5" cy="2.5" r="2.3" fill="black"/>

		<use href="#stop">
			<animateTransform type="rotate"
				from="0 2.5 2.5"
				to="360 2.5 2.5"
				attributeName="transform"
				dur="18s"
				repeatCount="indefinite"/>
		</use>
	</g>

	<mask id="glass">
		<rect x="0" y="0" width="5" height="5"/>
		<circle cx="2.5" cy="1.9" r="0.42" fill="white"/>
		<circle cx="2.5" cy="3.1" r="0.42" fill="white"/>
		<polygon points="2.2,2.17 2.8,2.17 2.2,2.83 2.8,2.83" fill="white" stroke-width="0.03" stroke="white"/>
	</mask>

	<g fill="sandybrown" stroke-width="0.04">
		<line x1="2.5" x2="2.5" y1="1.3" y2="3.7" stroke="black"/>
		<rect x="0" y="0" width="5" height="5"
			fill="lightgray" mask="url(#glass)"/>
	
		<rect x="1.5" y="2.5" width="2" height="1.2" mask="url(#glass)">
			<animate begin="0s;flip.end" attributeName="y" values="1.3;2.5" dur="15s"/>
			<animate id="drain" begin="0s;flip.end" attributeName="height" values="1.2;0" dur="15s"/>
		</rect>
		<line x1="2.5" x2="2.5" y1="2.55" y2="3.5" stroke="sandybrown"
			stroke-dasharray="0.01 0.1" stroke-linecap="round">
			<animate id="fall" begin="0s;flip.end" attributeName="y2" values="2.55;3.5" dur="1s"/>
			<animate begin="0s;flip.end" attributeName="stroke-dashoffset" values="0.11;0" dur="0.1s" repeatCount="indefinite"/>
		</line>
		<polygon mask="url(#glass)">
			<animate begin="fall.end" attributeName="points" values="2.5,3.52 2.5,3.52 2.5,3.52;1.3,3.52 3.7,3.52 2.5,2.5" dur="14s"/>
		</polygon>
		<rect x="1.9" y="1.2" width="1.2" height="0.2" fill="darkgray"/>
		<rect x="1.9" y="3.6" width="1.2" height="0.2" fill="darkgray"/>
		<line x1="2" x2="2" y1="1.3" y2="3.7" stroke="black"/>
		<line x1="3" x2="3" y1="1.3" y2="3.7" stroke="black"/>
		<animateTransform id="flip" begin="drain.end" type="rotate"
			from="0 2.5 2.5"
			to="180 2.5 2.5"
			attributeName="transform"
			dur="3s"/>
	</g>
</svg>